<?xml version="1.0" standalone="no"?><!DOCTYPE svg PUBLIC "-//W3C//DTD SVG 1.1//EN"
        "http://www.w3.org/Graphics/SVG/1.1/DTD/svg11.dtd">
<svg t="1621262320207" class="icon" viewBox="0 0 1024 1024" version="1.1" xmlns="http://www.w3.org/2000/svg" p-id="6787"
     width="16" height="16" xmlns:xlink="http://www.w3.org/1999/xlink">
    <defs>
        <style type="text/css"></style>
    </defs>
    <path d="M778.4 100.2c8.6 0 17.2 0.4 25.8 1.2 27 2.5 47.7 25.2 47.6 52.3v589.7c0 28.3-22.4 51.4-50.6 52.4-50.9 1.9-94.1 8.7-129.4 20.5-46.3 15.5-91.4 43.6-135 84.2V241.1c32.2-55.4 77.3-95.1 135-119.2 33.8-14.2 70-21.6 106.6-21.7z m126 655.6V217.7c13.9 0 27.3 5.5 37.1 15.4s15.4 23.2 15.4 37.1v533.9c0 41.7-26.1 109.2-105 102.4-55.6-4.7-59.2-6.7-106.1-5.9-45.9 0.8-110.2-0.8-167.7 12.7 32.2-26.9 79.3-45.9 110.5-52.5 31.1-6.7 70-9.6 115.7-11.3 58-2.1 100.1-45.7 100.1-93.7zM242.7 100.2c36.3 0 71.8 7.3 106.6 21.7 57.7 24 102.8 63.8 135 119.2v659.5c-43.6-40.7-88.7-68.8-135-84.2-35.3-11.7-78.4-18.6-129.4-20.4-28.2-1-50.6-24.2-50.5-52.5V153.7c0-27.1 20.6-49.7 47.6-52.2 8.5-0.9 17.1-1.3 25.7-1.3z m-126 655.6c0 43.3 32 91.2 101.2 93.7 45.8 1.7 74.4 6.7 114.7 11.3 40.3 4.5 79.1 25.7 111.3 52.5-57.5-13.5-117-12.7-168.6-12.7-40.6 0-47.7 5.9-106.1 5.9-68.9 0-105.1-62.3-105.1-102.4v-534c0-29 23.5-52.5 52.5-52.5v538.2h0.1z m0 0"
          p-id="6788" fill="#ffffff"></path>
</svg>
