<?xml version="1.0" standalone="no"?><!DOCTYPE svg PUBLIC "-//W3C//DTD SVG 1.1//EN" "http://www.w3.org/Graphics/SVG/1.1/DTD/svg11.dtd"><svg t="1625396486945" class="icon" viewBox="0 0 1024 1024" version="1.1" xmlns="http://www.w3.org/2000/svg" p-id="3591" xmlns:xlink="http://www.w3.org/1999/xlink" width="16" height="16"><defs><style type="text/css"></style></defs><path d="M682.666667 955.733333H341.333333a17.066667 17.066667 0 0 1-17.066666-17.066666V529.066667H85.333333a17.066667 17.066667 0 0 1-12.066133-29.1328l426.666667-426.666667a17.0496 17.0496 0 0 1 24.132266 0l426.666667 426.666667A17.066667 17.066667 0 0 1 938.666667 529.066667H699.733333v409.6a17.066667 17.066667 0 0 1-17.066666 17.066666z m-324.266667-34.133333h307.2V512a17.066667 17.066667 0 0 1 17.066667-17.066667h214.801066L512 109.4656 126.532267 494.933333H341.333333a17.066667 17.066667 0 0 1 17.066667 17.066667v409.6z" p-id="3592"></path></svg>