<?xml version="1.0" standalone="no"?><!DOCTYPE svg PUBLIC "-//W3C//DTD SVG 1.1//EN" "http://www.w3.org/Graphics/SVG/1.1/DTD/svg11.dtd"><svg t="1625396435648" class="icon" viewBox="0 0 1024 1024" version="1.1" xmlns="http://www.w3.org/2000/svg" p-id="3313" xmlns:xlink="http://www.w3.org/1999/xlink" width="16" height="16"><defs><style type="text/css"></style></defs><path d="M596.48 955.733333a17.066667 17.066667 0 0 1-15.837867-23.432533L749.602133 512l-168.96-420.3008a17.066667 17.066667 0 1 1 31.675734-12.731733l171.52 426.666666a16.9472 16.9472 0 0 1 0 12.731734l-171.52 426.666666a17.066667 17.066667 0 0 1-15.837867 10.7008zM426.666667 955.733333H256a17.083733 17.083733 0 0 1-15.854933-23.3984L408.285867 512 240.145067 91.682133A17.066667 17.066667 0 0 1 256 68.266667h170.666667a17.066667 17.066667 0 0 1 15.854933 10.752l169.813333 426.666666a16.964267 16.964267 0 0 1 0 12.612267l-169.813333 426.666667A17.0496 17.0496 0 0 1 426.666667 955.733333z m-145.4592-34.133333h133.888l163.0208-409.6-163.0208-409.6h-133.888l161.314133 403.2512c1.621333 4.078933 1.621333 8.6016 0 12.680533L281.207467 921.6z" p-id="3314"></path></svg>