<?xml version="1.0" standalone="no"?><!DOCTYPE svg PUBLIC "-//W3C//DTD SVG 1.1//EN" "http://www.w3.org/Graphics/SVG/1.1/DTD/svg11.dtd"><svg t="1625396421506" class="icon" viewBox="0 0 1024 1024" version="1.1" xmlns="http://www.w3.org/2000/svg" p-id="3174" xmlns:xlink="http://www.w3.org/1999/xlink" width="16" height="16"><defs><style type="text/css"></style></defs><path d="M427.52 955.733333a17.066667 17.066667 0 0 1-15.837867-10.7008l-171.52-426.666666a17.1008 17.1008 0 0 1 0-12.731734l171.52-426.666666a17.066667 17.066667 0 0 1 31.675734 12.731733L274.397867 512l168.96 420.3008A17.066667 17.066667 0 0 1 427.52 955.733333zM768 955.733333H597.333333c-6.980267 0-13.2608-4.266667-15.854933-10.752l-169.8304-426.666666a17.134933 17.134933 0 0 1 0-12.612267l169.8304-426.666667A17.066667 17.066667 0 0 1 597.333333 68.266667h170.666667a17.083733 17.083733 0 0 1 15.854933 23.3984L615.714133 512l168.1408 420.334933A17.066667 17.066667 0 0 1 768 955.733333z m-159.0784-34.133333h133.888l-161.314133-403.2512a17.134933 17.134933 0 0 1 0-12.680533L742.792533 102.4h-133.888l-163.037866 409.6 163.054933 409.6z" p-id="3175"></path></svg>