<?xml version="1.0" standalone="no"?><!DOCTYPE svg PUBLIC "-//W3C//DTD SVG 1.1//EN" "http://www.w3.org/Graphics/SVG/1.1/DTD/svg11.dtd"><svg t="1625396472425" class="icon" viewBox="0 0 1024 1024" version="1.1" xmlns="http://www.w3.org/2000/svg" p-id="3452" xmlns:xlink="http://www.w3.org/1999/xlink" width="16" height="16"><defs><style type="text/css"></style></defs><path d="M512 955.733333a17.015467 17.015467 0 0 1-12.066133-5.000533l-426.666667-426.666667A17.066667 17.066667 0 0 1 85.333333 494.933333h238.933334V85.333333a17.066667 17.066667 0 0 1 17.066666-17.066666h341.333334a17.066667 17.066667 0 0 1 17.066666 17.066666v409.6h238.933334a17.066667 17.066667 0 0 1 12.066133 29.1328l-426.666667 426.666667A17.015467 17.015467 0 0 1 512 955.733333zM126.532267 529.066667L512 914.5344 897.467733 529.066667H682.666667a17.066667 17.066667 0 0 1-17.066667-17.066667V102.4H358.4v409.6a17.066667 17.066667 0 0 1-17.066667 17.066667H126.532267z" p-id="3453"></path></svg>