<?xml version="1.0" standalone="no"?><!DOCTYPE svg PUBLIC "-//W3C//DTD SVG 1.1//EN" "http://www.w3.org/Graphics/SVG/1.1/DTD/svg11.dtd"><svg t="1621265893026" class="icon" viewBox="0 0 1024 1024" version="1.1" xmlns="http://www.w3.org/2000/svg" p-id="7801" xmlns:xlink="http://www.w3.org/1999/xlink" width="16" height="16"><defs><style type="text/css"></style></defs><path d="M303.668131 871.03908 360.190936 640.160478C364.449047 622.767347 358.742708 604.006304 345.008873 591.977803L169.539025 437.653291 393.184482 423.704099C412.665218 422.489051 429.193642 409.656196 435.673301 391.935876L514.904303 175.60688 594.006974 391.935876C600.487298 409.658371 617.017583 422.489212 636.495659 423.704099L860.137791 438.30053 684.671402 591.977803C670.935705 604.007838 665.231626 622.769465 669.489338 640.160478L726.12106 871.022857 514.840071 726.319228 488.538963 744.332557 303.668131 871.03908ZM751.937164 1001.534997C799.218169 1033.917114 852.713924 997.100106 839.056557 941.313658L766.22848 644.29499 987.237203 450.730697C1029.454728 413.75558 1008.8831 353.658795 952.835724 350.163012 952.835724 350.163012 731.428571 332.540968 671.484675 332.751114 636.897679 238.162897 567.723686 48.986465 567.723686 48.986465 547.757016-5.617957 481.91887-5.606373 461.956588 48.986465 461.956588 48.986465 368.713941 331.958565 359.376258 332.54098 265.198978 338.41499 76.844551 350.163012 76.844551 350.163012 20.810473 353.657956 0.076601 413.625188 42.443071 450.730697L263.461236 643.794792 190.623717 941.313658C177.018747 996.88583 230.374466 1033.977106 277.742978 1001.534997L516.425675 838.064354 751.937164 1001.534997Z" p-id="7802" fill="#6a737d"></path></svg>