<?xml version="1.0" standalone="no"?><!DOCTYPE svg PUBLIC "-//W3C//DTD SVG 1.1//EN"
        "http://www.w3.org/Graphics/SVG/1.1/DTD/svg11.dtd">
<svg t="1628953352592" class="icon" viewBox="0 0 1024 1024" version="1.1" xmlns="http://www.w3.org/2000/svg" p-id="4254"
     width="24" height="24" xmlns:xlink="http://www.w3.org/1999/xlink">
    <defs>
        <style type="text/css"></style>
    </defs>
    <path d="M379.01 256L231.35 511.75l0.05 0.03c-10.97 18.88-17.26 40.81-17.26 64.22 0 70.69 57.31 128 128 128s128-57.31 128-128c0-58.85-39.72-108.42-93.81-123.37L489.86 256H379.01zM696.34 452.63L809.86 256H699.01L551.35 511.75l0.05 0.03c-10.97 18.88-17.26 40.81-17.26 64.22 0 70.69 57.31 128 128 128s128-57.31 128-128c0-58.85-39.71-108.42-93.8-123.37z"
          p-id="4255"></path>
</svg>
